<?xml version="1.0" encoding="iso-8859-1"?>
<!-- Uploaded to: SVG Repo, www.svgrepo.com, Generator: SVG Repo Mixer Tools -->
<svg height="800px" width="800px" version="1.1" id="Layer_1" xmlns="http://www.w3.org/2000/svg" xmlns:xlink="http://www.w3.org/1999/xlink" 
	 viewBox="0 0 511.999 511.999" xml:space="preserve">
<path id="SVGCleanerId_0" style="fill:#FFEA92;" d="M231.99,266.824c-3.239-6.526-9.952-11.023-17.732-11.023
	c-2.765,0-5.397,0.569-7.788,1.593c-3.143-6.781-9.993-11.497-17.96-11.497c-7.967,0-14.817,4.716-17.961,11.497
	c-2.391-1.024-5.022-1.593-7.787-1.593c-7.78,0-14.494,4.497-17.732,11.023c-30.356,5.641-53.347,32.247-53.347,64.237
	c0,36.096,29.261,65.358,65.358,65.358h62.936c36.096,0,65.357-29.261,65.357-65.358
	C285.336,299.071,262.346,272.465,231.99,266.824z"/>
<g>
	<path id="SVGCleanerId_0_1_" style="fill:#FFEA92;" d="M231.99,266.824c-3.239-6.526-9.952-11.023-17.732-11.023
		c-2.765,0-5.397,0.569-7.788,1.593c-3.143-6.781-9.993-11.497-17.96-11.497c-7.967,0-14.817,4.716-17.961,11.497
		c-2.391-1.024-5.022-1.593-7.787-1.593c-7.78,0-14.494,4.497-17.732,11.023c-30.356,5.641-53.347,32.247-53.347,64.237
		c0,36.096,29.261,65.358,65.358,65.358h62.936c36.096,0,65.357-29.261,65.357-65.358
		C285.336,299.071,262.346,272.465,231.99,266.824z"/>
</g>
<path style="opacity:0.1;enable-background:new    ;" d="M252.636,375.117H189.7c-36.096,0-65.358-29.261-65.358-65.358
	c0-15.81,5.623-30.3,14.967-41.598c-27.477,7.728-47.624,32.954-47.624,62.901c0,36.096,29.261,65.358,65.358,65.358h62.936
	c20.295,0,38.428-9.25,50.416-23.764C264.745,374.247,258.794,375.117,252.636,375.117z"/>
<g>
	<path style="fill:#E5D07A;" d="M167.581,287.184c-2.005,0-4.011-0.765-5.542-2.296l-3.567-3.567
		c-3.061-3.06-3.059-8.023,0.001-11.082c3.061-3.061,8.023-3.061,11.082,0.001l3.567,3.568c3.061,3.06,3.059,8.023-0.001,11.082
		C171.592,286.419,169.586,287.184,167.581,287.184z"/>
	<path style="fill:#E5D07A;" d="M210.484,286.706c-2.005,0-4.011-0.765-5.541-2.296c-3.061-3.06-3.061-8.023,0-11.082l3.251-3.251
		c3.061-3.061,8.023-3.061,11.082,0c3.061,3.06,3.061,8.023,0,11.082l-3.251,3.251C214.495,285.942,212.489,286.706,210.484,286.706
		z"/>
	<path style="fill:#E5D07A;" d="M189.101,283.398c-4.328,0-7.837-3.509-7.837-7.837v-6.056c0-4.328,3.509-7.837,7.837-7.837
		c4.328,0,7.837,3.509,7.837,7.837v6.056C196.938,279.889,193.429,283.398,189.101,283.398z"/>
</g>
<path style="fill:#F2B47C;" d="M364.946,245.919c-3.239-6.525-9.952-11.023-17.732-11.023c-2.765,0-5.397,0.569-7.787,1.593
	c-3.144-6.782-9.993-11.496-17.961-11.496s-14.817,4.715-17.961,11.496c-2.39-1.024-5.021-1.593-7.787-1.593
	c-7.78,0-14.494,4.497-17.732,11.023c-30.357,5.641-53.347,32.247-53.347,64.238c0,36.095,29.261,65.357,65.358,65.357h62.936
	c36.097,0,65.358-29.262,65.358-65.357C418.292,278.164,395.301,251.56,364.946,245.919z"/>
<path style="opacity:0.1;enable-background:new    ;" d="M385.338,354.219h-62.936c-36.096,0-65.358-29.262-65.358-65.357
	c0-15.769,5.593-30.222,14.894-41.508c-27.308,7.838-47.297,32.975-47.297,62.801c0,36.095,29.261,65.357,65.358,65.357h62.936
	c20.334,0,38.496-9.286,50.484-23.848C397.673,353.317,391.613,354.219,385.338,354.219z"/>
<g>
	<path style="fill:#D89B68;" d="M300.537,266.279c-2.005,0-4.011-0.765-5.541-2.296l-3.568-3.567c-3.06-3.061-3.06-8.023,0-11.083
		s8.023-3.061,11.083,0l3.567,3.568c3.06,3.061,3.06,8.023,0,11.082C304.549,265.514,302.542,266.279,300.537,266.279z"/>
	<path style="fill:#D89B68;" d="M343.44,265.8c-2.005,0-4.011-0.765-5.541-2.296c-3.061-3.061-3.061-8.023,0-11.083l3.251-3.251
		c3.06-3.061,8.023-3.061,11.082,0c3.06,3.061,3.06,8.023,0,11.082l-3.251,3.251C347.45,265.035,345.445,265.8,343.44,265.8z"/>
	<path style="fill:#D89B68;" d="M322.056,262.492c-4.328,0-7.837-3.509-7.837-7.837v-6.056c0-4.328,3.509-7.837,7.837-7.837
		s7.837,3.509,7.837,7.837v6.056C329.893,258.983,326.384,262.492,322.056,262.492z"/>
</g>
<path style="fill:#FFFFFF;" d="M442.193,347.297c0,6.347-5.146,11.493-11.494,11.493H81.298c-6.348,0-11.493-5.146-11.493-11.493
	v-20.689c0-6.348,5.146-11.493,11.493-11.493h349.401c6.348,0,11.494,5.145,11.494,11.493V347.297z"/>
<path style="opacity:0.1;enable-background:new    ;" d="M113.487,347.297v-20.689c0-6.348,5.146-11.493,11.493-11.493H81.298
	c-6.348,0-11.493,5.145-11.493,11.493v20.689c0,6.347,5.146,11.493,11.493,11.493h43.683
	C118.633,358.79,113.487,353.644,113.487,347.297z"/>
<path style="fill:#FCE9C3;" d="M226.989,219.32h-26.346c-4.328,0-7.837-3.509-7.837-7.837c0-4.328,3.509-7.837,7.837-7.837h26.346
	c15.7,0,28.472-12.773,28.472-28.473c0-15.699-12.773-28.471-28.472-28.471h-27.032c-4.328,0-7.837-3.509-7.837-7.837
	c0-4.328,3.509-7.837,7.837-7.837h27.032c24.342,0,44.146,19.804,44.146,44.145C271.134,199.515,251.331,219.32,226.989,219.32z"/>
<g>
	<path style="fill:#F2D8A0;" d="M173.589,146.702h-31.714c-26.697,0-48.416-21.72-48.416-48.417s21.72-48.417,48.416-48.417h35.808
		c4.328,0,7.837,3.509,7.837,7.837c0,4.328-3.509,7.837-7.837,7.837h-35.808c-18.055,0-32.743,14.689-32.743,32.744
		s14.689,32.744,32.743,32.744h31.714c4.328,0,7.837,3.509,7.837,7.837C181.426,143.193,177.917,146.702,173.589,146.702z"/>
	<path style="fill:#F2D8A0;" d="M347.778,81.47h-26.132c-4.328,0-7.837-3.509-7.837-7.837s3.509-7.837,7.837-7.837h26.132
		c13.819,0,25.062-11.243,25.062-25.062s-11.243-25.061-25.062-25.061H325.08c-4.328,0-7.837-3.509-7.837-7.837S320.752,0,325.08,0
		h22.698c22.461,0,40.735,18.273,40.735,40.734C388.513,63.195,370.239,81.47,347.778,81.47z"/>
	<path style="fill:#F2D8A0;" d="M254.93,115.579c-4.328,0-7.837-3.509-7.837-7.837v-6.544c0-19.521,15.881-35.402,35.401-35.402
		h42.954c4.328,0,7.837,3.509,7.837,7.837c0,4.328-3.509,7.837-7.837,7.837h-42.954c-10.878,0-19.728,8.85-19.728,19.729v6.544
		C262.766,112.071,259.259,115.579,254.93,115.579z"/>
</g>
<path style="fill:#C69C6D;" d="M464.605,492.669c0,6.348-5.146,11.493-11.494,11.493H58.885c-6.348,0-11.493-5.146-11.493-11.493
	V357.046c0-6.347,5.146-11.493,11.493-11.493h394.226c6.348,0,11.494,5.146,11.494,11.493L464.605,492.669L464.605,492.669z"/>
<path style="opacity:0.1;enable-background:new    ;" d="M90.905,492.669V357.046c0-6.347,5.146-11.493,11.493-11.493H58.885
	c-6.348,0-11.493,5.146-11.493,11.493v135.624c0,6.348,5.146,11.493,11.493,11.493h43.514
	C96.051,504.162,90.905,499.016,90.905,492.669z"/>
<g>
	<path style="fill:#8C6239;" d="M383.476,460.922h-36.135c-4.328,0-7.837,3.509-7.837,7.837s3.509,7.837,7.837,7.837h36.135
		c4.328,0,7.837-3.509,7.837-7.837S387.804,460.922,383.476,460.922z"/>
	<path style="fill:#8C6239;" d="M161.923,388.792h36.585c4.328,0,7.837-3.509,7.837-7.837c0-4.328-3.509-7.837-7.837-7.837h-36.585
		c-4.328,0-7.837,3.509-7.837,7.837C154.086,385.284,157.595,388.792,161.923,388.792z"/>
	<path style="fill:#8C6239;" d="M139.376,388.792c4.328,0,7.837-3.509,7.837-7.837c0-4.328-3.509-7.837-7.837-7.837H47.392v15.673
		H139.376z"/>
	<path style="fill:#8C6239;" d="M104.432,418.061c4.328,0,7.837-3.509,7.837-7.837c0-4.328-3.509-7.837-7.837-7.837h-57.04v15.673
		H104.432z"/>
	<path style="fill:#8C6239;" d="M139.376,447.328c4.328,0,7.837-3.509,7.837-7.837c0-4.328-3.509-7.837-7.837-7.837H47.392v15.673
		H139.376z"/>
	<path style="fill:#8C6239;" d="M318.692,476.596c4.328,0,7.837-3.509,7.837-7.837s-3.509-7.837-7.837-7.837h-271.3v15.673H318.692z
		"/>
	<path style="fill:#8C6239;" d="M464.605,476.086v-14.653c-0.86-0.324-1.788-0.51-2.762-0.51h-55.38
		c-4.328,0-7.837,3.509-7.837,7.837c0,4.328,3.509,7.837,7.837,7.837h55.38C462.817,476.596,463.745,476.41,464.605,476.086z"/>
</g>
<path d="M464.605,385.044c4.328,0,7.837-3.509,7.837-7.837v-20.161c0-10.658-8.672-19.33-19.331-19.33h-3.082v-11.108
	c0-10.659-8.672-19.33-19.331-19.33h-4.632c-1.278-32.802-24.294-60.757-56.144-68.314c-5.119-7.429-13.505-11.905-22.71-11.905
	c-1.452,0-2.889,0.111-4.304,0.333c-5.181-6.367-13.045-10.236-21.443-10.236c-8.399,0-16.263,3.869-21.443,10.236
	c-1.415-0.222-2.85-0.333-4.303-0.333c-9.204,0-17.591,4.475-22.71,11.905c-14.161,3.36-26.572,10.758-36.107,20.816
	c-5.124-7.375-13.478-11.816-22.644-11.816c-1.452,0-2.889,0.111-4.304,0.333c-5.181-6.367-13.045-10.236-21.443-10.236
	s-16.263,3.87-21.443,10.236c-1.415-0.222-2.85-0.333-4.303-0.333c-9.205,0-17.592,4.475-22.71,11.905
	c-24.798,5.883-44.233,24.135-52.23,47.409h-6.525c-10.659,0-19.33,8.672-19.33,19.33v11.108h-3.082
	c-10.659,0-19.33,8.672-19.33,19.33v135.624c0,10.659,8.672,19.33,19.33,19.33h394.226c10.659,0,19.331-8.672,19.331-19.33v-82.026
	c0-4.328-3.509-7.837-7.837-7.837c-4.328,0-7.837,3.509-7.837,7.837v82.026c0,2.017-1.64,3.656-3.657,3.656H58.885
	c-2.017,0-3.657-1.641-3.657-3.656V357.046c0-2.016,1.64-3.656,3.657-3.656h394.226c2.017,0,3.657,1.641,3.657,3.656v20.161
	C456.768,381.535,460.277,385.044,464.605,385.044z M279.42,253.623c2.422-0.45,4.492-2.014,5.588-4.221
	c2.042-4.115,6.146-6.67,10.712-6.67c1.631,0,3.212,0.323,4.7,0.96c3.896,1.669,8.414-0.062,10.196-3.908
	c1.959-4.226,6.217-6.956,10.85-6.956c4.633,0,8.892,2.73,10.85,6.956c1.784,3.846,6.302,5.576,10.196,3.908
	c1.488-0.637,3.07-0.96,4.701-0.96c4.566,0,8.671,2.556,10.712,6.671c1.096,2.207,3.165,3.77,5.588,4.22
	c26.253,4.88,45.552,27.199,46.866,53.654H232.554C233.866,280.822,253.167,258.503,279.42,253.623z M434.356,337.716H77.641
	v-11.108c0-2.017,1.64-3.656,3.656-3.656h32.596c4.328,0,7.837-3.509,7.837-7.837s-3.509-7.837-7.837-7.837h-9.213
	c7.567-16.654,22.864-29.233,41.783-32.749c2.423-0.45,4.493-2.014,5.588-4.221c2.042-4.115,6.146-6.67,10.712-6.67
	c1.631,0,3.213,0.323,4.701,0.96c3.895,1.669,8.414-0.062,10.196-3.908c1.958-4.226,6.217-6.956,10.85-6.956s8.891,2.73,10.85,6.956
	c1.783,3.845,6.299,5.577,10.195,3.908c1.489-0.637,3.071-0.96,4.702-0.96c4.565,0,8.671,2.556,10.713,6.671
	c0.498,1.005,1.207,1.867,2.051,2.561c-6.047,10.206-9.672,21.954-10.156,34.408h-65.357c-4.328,0-7.837,3.509-7.837,7.837
	s3.509,7.837,7.837,7.837h279.19c2.017,0,3.657,1.641,3.657,3.656V337.716z"/>
</svg>