<?xml version="1.0" encoding="iso-8859-1"?>
<!-- Uploaded to: SVG Repo, www.svgrepo.com, Generator: SVG Repo Mixer Tools -->
<svg height="800px" width="800px" version="1.1" id="Layer_1" xmlns="http://www.w3.org/2000/svg" xmlns:xlink="http://www.w3.org/1999/xlink" 
	 viewBox="0 0 512 512" xml:space="preserve">
<ellipse style="fill:#FCEE21;" cx="153.109" cy="108.147" rx="68.389" ry="67.333"/>
<path style="fill:#F2EBAA;" d="M153.112,153.695c-25.51,0-46.261-20.432-46.261-45.546c0-25.115,20.751-45.546,46.261-45.546
	c25.509,0,46.261,20.431,46.261,45.546C199.374,133.263,178.621,153.695,153.112,153.695z"/>
<path style="fill:#CEE9FF;" d="M405.906,108.572H175.084c-11.804,0-21.373,9.421-21.373,21.042v138.877
	c0,11.621,9.569,21.042,21.373,21.042h9.025l9.498,193.588c0,11.62,9.569,21.042,21.372,21.042h151.032
	c11.807,0,21.374-9.422,21.374-21.042l9.498-193.588h9.023c11.805,0,21.374-9.421,21.374-21.042V129.614
	C427.281,117.993,417.712,108.572,405.906,108.572z"/>
<g>
	<path style="fill:#B7AE6E;" d="M153.112,75.757c-2.886,0-5.224,2.338-5.224,5.224v4.18c0,2.886,2.338,5.224,5.224,5.224
		c2.885,0,5.225-2.338,5.225-5.224v-4.18C158.337,78.096,155.997,75.757,153.112,75.757z"/>
	<path style="fill:#B7AE6E;" d="M135.349,108.149c0-2.886-2.34-5.224-5.224-5.224h-4.18c-2.886,0-5.224,2.338-5.224,5.224
		s2.338,5.224,5.224,5.224h4.18C133.009,113.374,135.349,111.035,135.349,108.149z"/>
	<path style="fill:#B7AE6E;" d="M133.162,120.71l-2.955,2.955c-2.04,2.04-2.04,5.348,0,7.387c1.021,1.021,2.357,1.531,3.695,1.531
		c1.336,0,2.674-0.51,3.694-1.531l2.955-2.955c2.041-2.04,2.041-5.348,0-7.387C138.511,118.669,135.204,118.669,133.162,120.71z"/>
	<path style="fill:#B7AE6E;" d="M169.368,97.118c1.336,0,2.674-0.51,3.694-1.531l2.955-2.955c2.041-2.04,2.041-5.348,0-7.387
		c-2.041-2.041-5.348-2.041-7.388,0l-2.955,2.955c-2.04,2.04-2.04,5.348,0,7.387C166.693,96.608,168.03,97.118,169.368,97.118z"/>
	<path style="fill:#B7AE6E;" d="M137.596,85.244c-2.041-2.041-5.348-2.041-7.388,0c-2.04,2.04-2.04,5.348,0,7.387l2.955,2.955
		c1.021,1.021,2.357,1.531,3.695,1.531c1.336,0,2.674-0.51,3.694-1.531c2.041-2.04,2.041-5.348,0-7.387L137.596,85.244z"/>
</g>
<path style="fill:#A5D289;" d="M290.496,244.379c-10.627,0-19.271-8.512-19.271-18.974V45.784c0-20.925,17.29-37.948,38.545-37.948
	h78.37c3.548,0,6.425,2.831,6.425,6.326v25.298c0,3.493-2.877,6.325-6.425,6.325h-78.37v179.619
	C309.769,235.866,301.125,244.379,290.496,244.379z"/>
<path style="opacity:0.1;enable-background:new    ;" d="M237.382,483.121l-9.498-193.588h-9.025
	c-11.804,0-21.373-9.421-21.373-21.042V129.613c0-11.621,9.569-21.042,21.373-21.042h-43.775c-11.804,0-21.373,9.421-21.373,21.042
	v138.877c0,11.621,9.569,21.042,21.373,21.042h9.025l9.498,193.588c0,11.62,9.569,21.042,21.372,21.042h43.774
	C246.951,504.163,237.382,494.741,237.382,483.121z"/>
<g>
	<path style="fill:#FFFFFF;" d="M309.767,64.423h-38.543c-4.329,0-7.837-3.508-7.837-7.837s3.508-7.837,7.837-7.837h38.543
		c4.329,0,7.837,3.508,7.837,7.837S314.096,64.423,309.767,64.423z"/>
	<path style="fill:#FFFFFF;" d="M309.767,92.297h-38.543c-4.329,0-7.837-3.508-7.837-7.837s3.508-7.837,7.837-7.837h38.543
		c4.329,0,7.837,3.508,7.837,7.837S314.096,92.297,309.767,92.297z"/>
	<path style="fill:#FFFFFF;" d="M348.107,250.826c-4.982,4.91-13.128,4.843-18.194-0.149l-24.769-24.404
		c-5.069-4.996-5.133-13.025-0.151-17.93l24.361-24.011c4.981-4.906,13.129-4.842,18.2,0.153l24.768,24.404
		c5.065,4.99,5.129,13.022,0.149,17.934L348.107,250.826z"/>
	<path style="fill:#FFFFFF;" d="M258.923,244.635c-4.981,4.91-13.127,4.843-18.194-0.149l-24.769-24.404
		c-5.07-4.996-5.133-13.024-0.153-17.931l24.36-24.01c4.982-4.905,13.13-4.842,18.199,0.153l24.769,24.406
		c5.066,4.989,5.128,13.02,0.149,17.933L258.923,244.635z"/>
</g>
<path style="fill:#F2EBAA;" d="M231.742,476.107c-5.571,0-10.164-4.372-10.436-9.937l-8.733-177.99
	c-0.618-12.573-9.733-23.274-22.169-26.019c-4.788-1.057-8.196-5.3-8.196-10.203v-30.532c0-5.77,4.678-10.449,10.449-10.449h195.678
	c5.77,0,10.449,4.679,10.449,10.449v30.532c0,4.902-3.408,9.145-8.195,10.203c-12.435,2.747-21.551,13.447-22.169,26.019
	l-8.733,177.99c-0.274,5.565-4.865,9.937-10.436,9.937H231.742z"/>
<g>
	<path style="fill:#B7AE6E;" d="M290.496,424.783h-8.548c-4.329,0-7.837,3.508-7.837,7.837c0,4.328,3.508,7.837,7.837,7.837h8.548
		c4.329,0,7.837-3.509,7.837-7.837C298.333,428.292,294.824,424.783,290.496,424.783z"/>
	<path style="fill:#B7AE6E;" d="M327.542,384.101h-8.549c-4.328,0-7.837,3.508-7.837,7.837c0,4.329,3.509,7.837,7.837,7.837h8.549
		c4.329,0,7.837-3.508,7.837-7.837C335.379,387.609,331.87,384.101,327.542,384.101z"/>
	<path style="fill:#B7AE6E;" d="M261.999,357.449h-8.549c-4.328,0-7.837,3.508-7.837,7.837s3.509,7.837,7.837,7.837h8.549
		c4.329,0,7.837-3.508,7.837-7.837S266.328,357.449,261.999,357.449z"/>
	<path style="fill:#B7AE6E;" d="M304.744,320.977h-8.549c-4.329,0-7.837,3.508-7.837,7.837c0,4.328,3.508,7.837,7.837,7.837h8.549
		c4.329,0,7.837-3.509,7.837-7.837C312.581,324.485,309.074,320.977,304.744,320.977z"/>
	<path style="fill:#B7AE6E;" d="M263.424,242.419h-8.549c-4.328,0-7.837,3.508-7.837,7.837c0,4.329,3.509,7.837,7.837,7.837h8.549
		c4.329,0,7.837-3.508,7.837-7.837C271.261,245.927,267.753,242.419,263.424,242.419z"/>
</g>
<path d="M405.906,100.735h-74.674c-4.329,0-7.837,3.508-7.837,7.837s3.508,7.837,7.837,7.837h74.674
	c7.465,0,13.538,5.924,13.538,13.205v138.877c0,7.282-6.074,13.205-13.538,13.205h-28.05c2.535-5.886,7.827-10.427,14.425-11.884
	c8.443-1.866,14.34-9.209,14.34-17.855v-30.532c0-10.082-8.202-18.286-18.286-18.286h-10.682l-24.6-24.239
	c-3.956-3.897-9.192-6.044-14.741-6.044c-5.467,0-10.602,2.092-14.459,5.892l-6.246,6.157V53.621h70.534
	c7.864,0,14.262-6.353,14.262-14.162V14.163C402.402,6.353,396.004,0,388.14,0h-78.37c-25.575,0-46.382,20.539-46.382,45.784v54.951
	h-34.421c-3.789-37.983-36.358-67.76-75.854-67.76c-42.033,0-76.229,33.722-76.229,75.172c0,39.042,30.342,71.216,68.991,74.824
	v85.519c0,15.923,13.104,28.879,29.21,28.879h1.563l9.124,185.958C185.884,499.158,198.943,512,214.98,512h151.032
	c16.038,0,29.098-12.842,29.21-28.672l9.123-185.958h1.561c16.107,0,29.211-12.955,29.211-28.879V129.613
	C435.117,113.691,422.013,100.735,405.906,100.735z M334.853,189.914c0.905-0.892,2.133-1.382,3.459-1.382
	c1.407,0,2.737,0.545,3.742,1.536l13.268,13.074h-33.889L334.853,189.914z M279.061,116.409h9.331c4.329,0,7.837-3.508,7.837-7.837
	s-3.508-7.837-7.837-7.837h-9.331V45.784c0-16.603,13.776-30.111,30.709-30.111h76.959v22.274h-76.959
	c-4.329,0-7.837,3.508-7.837,7.837v154.569l-2.441,2.406c-0.125,0.124-0.242,0.255-0.365,0.381h-6.25
	c-1.027-2.21-2.442-4.252-4.241-6.025l-9.575-9.434L279.061,116.409L279.061,116.409z M388.334,218.814
	c1.441,0,2.612,1.171,2.612,2.612v30.532c0,1.236-0.843,2.285-2.049,2.551c-13.824,3.053-24.433,13.828-27.466,27.188h-93.937
	c-4.329,0-7.837,3.508-7.837,7.837c0,4.329,3.508,7.837,7.837,7.837h92.629l-8.264,168.416c-0.068,1.393-1.214,2.485-2.609,2.485
	H231.742c-1.394,0-2.541-1.091-2.609-2.484l-8.264-168.417h5.874c4.328,0,7.837-3.508,7.837-7.837c0-4.329-3.509-7.837-7.837-7.837
	h-7.183c-3.033-13.36-13.642-24.136-27.467-27.188c-1.206-0.266-2.049-1.316-2.049-2.551v-30.532c0-1.441,1.172-2.612,2.612-2.612
	L388.334,218.814L388.334,218.814z M272.42,203.141h-46.453l19.701-19.416c0.906-0.892,2.135-1.383,3.461-1.383
	c1.407,0,2.737,0.544,3.74,1.535L272.42,203.141z M145.874,129.614v15.564c-17.737-3.332-31.187-18.664-31.187-37.029
	c0-4.329-3.509-7.837-7.837-7.837c-4.328,0-7.837,3.508-7.837,7.837c0,27.013,20.442,49.388,46.861,52.891v6.168
	c-29.989-3.528-53.318-28.659-53.318-59.059c0-32.808,27.165-59.499,60.556-59.499c30.834,0,56.34,22.766,60.068,52.086h-6.503
	c-3.67-25.938-26.285-45.969-53.565-45.969c-15.666,0-30.558,6.716-40.859,18.425c-2.859,3.25-2.542,8.202,0.708,11.06
	c3.25,2.859,8.201,2.541,11.06-0.707c7.326-8.328,17.928-13.104,29.09-13.104c18.602,0,34.156,13.041,37.675,30.296h-15.702
	C158.978,100.735,145.874,113.691,145.874,129.614z M175.084,281.697c-7.464,0-13.537-5.924-13.537-13.205V129.614
	c0-7.282,6.073-13.205,13.537-13.205h88.303v55.873c-3.896-3.614-8.927-5.614-14.261-5.614c-5.466,0-10.6,2.092-14.46,5.892
	l-24.36,24.01c-1.938,1.91-3.441,4.14-4.462,6.572h-13.188c-10.082,0-18.286,8.203-18.286,18.286v30.532
	c0,8.648,5.898,15.991,14.343,17.855c6.596,1.458,11.888,5.998,14.423,11.884h-28.053V281.697z M379.558,482.738
	c-0.006,0.127-0.009,0.255-0.009,0.383c0,7.282-6.074,13.205-13.538,13.205H214.979c-7.464,0-13.536-5.924-13.536-13.205
	c0-0.129-0.003-0.256-0.009-0.383l-9.095-185.367h12.838l8.301,169.184c0.479,9.751,8.501,17.39,18.264,17.39H349.25
	c9.762,0,17.784-7.638,18.264-17.39l8.302-169.184h12.837L379.558,482.738z"/>
<g>
	<path style="fill:#FFFFFF;" d="M377.781,121.208c-5.823,14.059-10.545,18.781-24.605,24.605
		c14.06,5.823,18.782,10.546,24.605,24.605c5.824-14.059,10.546-18.782,24.606-24.605
		C388.327,139.989,383.605,135.267,377.781,121.208z"/>
	<circle style="fill:#FFFFFF;" cx="398.002" cy="176.755" r="10.855"/>
</g>
</svg>